<?xml version="1.0" encoding="utf-8"?>
<!-- Generator: Adobe Illustrator 22.1.0, SVG Export Plug-In . SVG Version: 6.00 Build 0)  -->
<svg version="1.1" id="Layer_1" xmlns="http://www.w3.org/2000/svg" xmlns:xlink="http://www.w3.org/1999/xlink" x="0px" y="0px"
	 viewBox="0 0 562.2 117.4" style="enable-background:new 0 0 562.2 117.4;" xml:space="preserve">
<style type="text/css">
	.st0{fill:#999190;}
	.st1{fill:#4A60AC;}
</style>
<g>
	<rect x="197" y="5.1" class="st0" width="12" height="81.6"/>
	<polygon class="st1" points="535.4,62 522.5,46 537.3,8.3 556.5,8.3 	"/>
	<path class="st0" d="M292.2,86.7V5.1h12v33.3c2-2.7,4.9-4.9,8.4-6.6c3.6-1.7,7.2-2.6,11-2.6c6.1,0,11,1.7,14.7,5.1
		c3.7,3.4,5.6,8.2,5.6,14.3v38.1h-12V52.2c0-3.8-1.2-6.8-3.5-9c-2.3-2.2-5.3-3.3-8.9-3.3c-4.1,0-7.7,1.5-10.7,4.7
		c-3,3.2-4.5,7.1-4.5,12.1v29.9H292.2z"/>
	<path class="st0" d="M233.8,58.7c0,5.2,1.7,9.7,5,13.3c3.4,3.6,7.7,5.4,13,5.4c5.3,0,9.6-1.8,13-5.4c3.4-3.6,5-8,5-13.3
		c0-5.3-1.7-9.7-5-13.3c-3.4-3.6-7.7-5.4-13-5.4c-5.3,0-9.6,1.8-13,5.4C235.4,49,233.8,53.4,233.8,58.7 M222.3,112.3V30.7h12v6.8
		c4.6-4.7,11.5-8.3,19.5-8.3c8,0,14.7,2.8,20,8.3c5.3,5.5,8,12.6,8,21.2c0,8.9-3.1,16.6-8.2,21.6c-5,5-12.1,8-19.8,8
		c-8.2,0-15.3-3.4-19.5-8.1v32.1H222.3z"/>
	<path class="st0" d="M365.6,58.7c0,5.2,1.6,9.6,4.9,13.3c3.3,3.6,7.5,5.4,12.8,5.4c5.3,0,9.5-1.8,12.7-5.4
		c3.2-3.7,4.8-8.1,4.8-13.3c0-5.2-1.6-9.6-4.8-13.2c-3.2-3.7-7.4-5.5-12.7-5.5c-5.2,0-9.5,1.8-12.8,5.5
		C367.2,49.1,365.6,53.5,365.6,58.7 M357.5,43.3c5.3-9.1,14.4-14.2,24.7-14.2c7.9,0,14.5,3.3,18.1,7.7v-6.1h12v56h-12v-6.1
		c-4.9,4.9-10.2,7.7-18.5,7.7c-7.5,0-14.6-3-19.8-8.1c-5.1-5.1-8.5-12.8-8.5-21.5C353.6,53,354.9,47.8,357.5,43.3"/>
	<path class="st0" d="M5.7,41.1V30.7h6.8v-7.4c0-5.4,1.7-9.7,5-12.8c3.4-3.2,7.4-4.7,11.9-4.7c3.4,0,6.6,0.8,9.6,2.4l0.4,11.1h-0.9
		c-2.2-2.1-4.6-3.1-7.3-3.1c-4.2,0-6.9,2.7-6.9,7.6v7h9.6v10.5h-9.6v45.5h-12V41.1H5.7z"/>
	<path class="st0" d="M55.8,58.7c0,5.2,1.7,9.7,5,13.3c3.4,3.6,7.7,5.4,13,5.4c5.3,0,9.6-1.8,13-5.4c3.4-3.6,5-8,5-13.3
		c0-5.3-1.7-9.7-5-13.3c-3.4-3.6-7.7-5.4-13-5.4c-5.3,0-9.6,1.8-13,5.4C57.5,49,55.8,53.4,55.8,58.7 M44.4,112.3V30.7h12v6.8
		c4.6-4.7,11.5-8.3,19.5-8.3c8,0,14.7,2.8,20,8.3c5.3,5.5,8,12.6,8,21.2c0,8.9-3.1,16.6-8.2,21.6c-5,5-12.1,8-19.8,8
		c-8.2,0-15.3-3.4-19.5-8.1v32.1H44.4z"/>
	<path class="st0" d="M136.8,58.7c0,5.2,1.6,9.6,4.9,13.3c3.3,3.6,7.5,5.4,12.8,5.4c5.3,0,9.5-1.8,12.7-5.4
		c3.2-3.7,4.8-8.1,4.8-13.3c0-5.2-1.6-9.6-4.8-13.2c-3.2-3.7-7.4-5.5-12.7-5.5c-5.2,0-9.5,1.8-12.8,5.5
		C138.4,49.1,136.8,53.5,136.8,58.7 M128.8,43.3c5.3-9.1,14.4-14.2,24.7-14.2c7.9,0,14.5,3.3,18.1,7.7v-6.1h12v56h-12v-6.1
		c-4.9,4.9-10.2,7.7-18.5,7.7c-7.5,0-14.6-3-19.8-8.1c-5.1-5.1-8.5-12.8-8.5-21.5C124.8,53,126.2,47.8,128.8,43.3"/>
	<path class="st1" d="M496.9,24.6c11.7,0,18.5,7.8,22.5,17.1l17.9,45.5h19.2l-20.2-51.5c-5.8-15.7-19.9-29-39.3-29
		c-22.6,0-41,18.4-41,41c0,22.6,18.4,41,41,41c8,0,15.5-2.3,21.9-6.3l0-27c-3.2,9-11.8,15.4-21.8,15.4c-12.8,0-23.1-10.4-23.1-23.1
		C473.8,35,484.1,24.6,496.9,24.6"/>
</g>
</svg>
